<svg width="24" height="24" viewBox="0 0 24 24" fill="none" xmlns="http://www.w3.org/2000/svg">
<path d="M20.4844 3.51562C18.1406 1.17186 15.3125 0 12 0C8.68748 0 5.85939 1.17186 3.51562 3.51562C1.17186 5.85939 0 8.68748 0 12C0 15.3125 1.17186 18.1406 3.51562 20.4844C5.85939 22.8281 8.68748 24 12 24C15.3125 24 18.1406 22.8281 20.4844 20.4844C22.8281 18.1406 24 15.3125 24 12C24 8.68748 22.8281 5.85939 20.4844 3.51562ZM15.0938 12H13.125V19.2188H10.4531V12H8.625V9.51562H10.4531V8.0625C10.4531 6.96874 10.6562 6.14844 11.0625 5.60156C11.4688 5.05468 12.2344 4.78125 13.3594 4.78125H15.3281V7.26562H14.1094C13.6719 7.26562 13.3984 7.34375 13.2891 7.5C13.1797 7.65625 13.125 7.92187 13.125 8.29688V9.51562H15.375L15.0938 12Z" fill="white"/>
</svg>
