<svg width="24" height="17" viewBox="0 0 24 17" fill="none" xmlns="http://www.w3.org/2000/svg">
<g clip-path="url(#clip0)">
<path d="M20.7422 0.328127C14.2422 -0.109376 8.39846 -0.109376 3.21094 0.328127C2.39843 0.421877 1.71094 0.874998 1.14844 1.6875C0.585936 2.50001 0.257814 3.34375 0.164063 4.21875C-0.0546878 7.09377 -0.0546878 9.96874 0.164063 12.8438C0.257814 13.7188 0.585936 14.5625 1.14844 15.375C1.71094 16.1875 2.39843 16.6563 3.21094 16.7813C9.52347 17.1875 15.3672 17.1875 20.7422 16.7813C21.5547 16.625 22.2422 16.1406 22.8047 15.3281C23.3672 14.5156 23.6953 13.6875 23.7891 12.8438C24.0078 9.90624 24.0078 6.95314 23.7891 3.98438C23.6953 3.07812 23.3906 2.25001 22.875 1.5C22.3594 0.749998 21.6484 0.359377 20.7422 0.328127ZM8.97656 12.7969V4.17188L16.4766 8.48438L8.97656 12.7969Z" fill="white"/>
</g>
<defs>
<clipPath id="clip0">
<rect width="23.625" height="16.5" fill="white"/>
</clipPath>
</defs>
</svg>
