<svg id="logo" xmlns="http://www.w3.org/2000/svg" viewBox="0 0 190.72 41.67">
  <defs>
    <style>
      .cls-1 {
        fill: #fff;
      }
    </style>
  </defs>
  <title>strong-ventures-logo-white</title>
  <g>
    <path class="cls-1" d="M20.82,15.67l10.4-.05L15.61,0l0,0L0,15.59l0,0L10.4,26,0,26,15.61,41.65v0l15.6-15.6,0,0ZM15.65,31.21l0,0V21l-5.3-5.31.08-.08,5.15-5.15,0,0V20.67l5.3,5.3-.08.08Z"/>
    <g>
      <path class="cls-1" d="M122.32,11.52l-1.63,5.41c-1.06,3.5-2.13,7-3.17,10.52-.15.49-.35.69-.9.67-1.24-.05-2.48,0-3.75,0l-5-16.66h3.81c.9,0,.89,0,1.09.9.73,3.26,1.47,6.52,2.2,9.78a.78.78,0,0,0,.22.39c.06-.25.14-.5.2-.75.73-3.28,1.45-6.56,2.2-9.84,0-.18.27-.46.42-.46,1.37,0,2.74,0,4.11,0A.74.74,0,0,1,122.32,11.52Z"/>
      <path class="cls-1" d="M53.28,15.08l-2.69,1.21a9.33,9.33,0,0,0-1.52-1.46,2.42,2.42,0,0,0-1.47-.18A1,1,0,0,0,47,16.46a7,7,0,0,0,1.27.95,28.7,28.7,0,0,1,3.59,2.39,4.9,4.9,0,0,1-.94,7.89,6.31,6.31,0,0,1-8.09-2.05c-.8-1.28-.76-1.43.63-1.91l.49-.18c.41-.14.85-.43,1.23-.36s.51.55.76.85a2.57,2.57,0,0,0,2.38,1,1.06,1.06,0,0,0,1-1.57,3,3,0,0,0-1-1.19c-1.06-.7-2.2-1.28-3.28-2a5,5,0,0,1-2.36-3,4.67,4.67,0,0,1,4-6,5.71,5.71,0,0,1,5.88,2.41,5,5,0,0,1,.34.59C53,14.52,53.14,14.77,53.28,15.08Z"/>
      <path class="cls-1" d="M161.6,28.08h-3.35l-.16-.59a13.9,13.9,0,0,1-2.08.74c-2.61.52-4.2-1-4.37-3.38-.19-2.71-.1-5.44-.13-8.16,0-.29.1-.42.39-.41,1,0,2,0,3,0,.4,0,.4.23.4.52v6.45a7,7,0,0,0,.06,1,1,1,0,0,0,1.26,1,1.08,1.08,0,0,0,1.15-1.18c0-2.4,0-4.8,0-7.2,0-.45.11-.64.6-.62.91,0,1.83,0,2.74,0,.36,0,.52.12.51.5,0,3.68,0,7.35,0,11A2.6,2.6,0,0,1,161.6,28.08Z"/>
      <path class="cls-1" d="M85.92,28.08H82.16V16.29c1,0,2.09,0,3.13,0,.13,0,.24.42.39.7a2.33,2.33,0,0,0,.3-.18,4.11,4.11,0,0,1,3.47-.67A3.34,3.34,0,0,1,92,19.06a6.68,6.68,0,0,1,.14,1.41c0,2.52,0,5,0,7.59H88.37v-.65c0-2.21,0-4.42,0-6.63a2.73,2.73,0,0,0-.21-1.05,1,1,0,0,0-1.27-.48c-.64.18-.95.52-.94,1,0,2.36,0,4.72,0,7.08C86,27.59,85.93,27.81,85.92,28.08Z"/>
      <path class="cls-1" d="M142.23,28.08h-3.76c0-.22,0-.42,0-.62,0-2.25,0-4.49,0-6.74a2.58,2.58,0,0,0-.21-1,1,1,0,0,0-1.27-.48c-.61.18-.95.49-.94,1,0,2.4,0,4.8,0,7.2,0,.5-.13.65-.64.64-1,0-2.08,0-3.17,0V16.32h3.33c0,.24.06.46.1.75a4.34,4.34,0,0,0,.4-.23,4.08,4.08,0,0,1,3.47-.66,3.32,3.32,0,0,1,2.57,2.89,6.61,6.61,0,0,1,.13,1.41C142.24,23,142.23,25.5,142.23,28.08Z"/>
      <path class="cls-1" d="M80.48,22.21a16.35,16.35,0,0,1,0,2.62A3.91,3.91,0,0,1,77.76,28,6.71,6.71,0,0,1,73.4,28a4.18,4.18,0,0,1-3-4.21c0-1.22,0-2.44,0-3.66a4.23,4.23,0,0,1,4.13-4,8.59,8.59,0,0,1,2.72.16c2.13.47,3.22,2,3.29,4.38,0,.51,0,1,0,1.54Zm-3.76,0c0-.68,0-1.37,0-2.05A1.19,1.19,0,0,0,75.57,19a1.07,1.07,0,0,0-1.28,1.12c-.06,1.42-.06,2.84,0,4.26a1.09,1.09,0,0,0,1.29,1.12,1.19,1.19,0,0,0,1.13-1.26C76.74,23.54,76.72,22.9,76.72,22.25Z"/>
      <path class="cls-1" d="M128.05,24.15l2.66,1A3.9,3.9,0,0,1,128,28a6.49,6.49,0,0,1-4,0,3.83,3.83,0,0,1-2.79-3.47,30.34,30.34,0,0,1,0-4.67,4.13,4.13,0,0,1,4-3.73,8.65,8.65,0,0,1,2.49.19,4.15,4.15,0,0,1,3,4c0,.7,0,1.41,0,2.11,0,.45-.17.54-.57.54-1.52,0-3.05,0-4.57,0-.5,0-.6.17-.59.62,0,1.22.46,1.82,1.39,1.86a1.42,1.42,0,0,0,1.38-.74C127.82,24.54,127.93,24.37,128.05,24.15Zm-.74-3.8c0-1.15-.56-1.65-1.56-1.41-.56.13-.83.66-.8,1.51,0,.29.12.41.41.41.47,0,1,0,1.42,0S127.38,20.72,127.31,20.35Z"/>
      <path class="cls-1" d="M181,25.19A3.86,3.86,0,0,1,178.31,28a6.59,6.59,0,0,1-4,0,3.85,3.85,0,0,1-2.83-3.5,31,31,0,0,1,0-4.62,4.14,4.14,0,0,1,4-3.76,8.51,8.51,0,0,1,2.37.18,4.17,4.17,0,0,1,3.06,4c0,.72,0,1.44,0,2.17,0,.41-.16.51-.54.51-1.54,0-3.09,0-4.63,0-.47,0-.58.16-.57.59,0,1.27.49,1.88,1.48,1.89a1.42,1.42,0,0,0,1.39-.91c.14-.34.3-.4.65-.25.7.29,1.42.53,2.13.79Zm-4.58-4.33v.05c.38-.06,1,0,1.09-.2a1.94,1.94,0,0,0-.07-1.25c-.17-.51-.82-.68-1.47-.52s-.77.82-.7,1.58.64.21,1,.34A1,1,0,0,0,176.41,20.86Z"/>
      <path class="cls-1" d="M190.72,19.17l-2.47.83c-.13-.2-.25-.39-.38-.57a1.5,1.5,0,0,0-1.65-.61.6.6,0,0,0-.28,1.06,5.41,5.41,0,0,0,1.12.66c.54.28,1.1.51,1.64.79a3.39,3.39,0,0,1,2,3.42,3.4,3.4,0,0,1-2.1,3.08,5.18,5.18,0,0,1-4.92-.17A4.1,4.1,0,0,1,182,25.73c-.13-.27-.08-.42.19-.54.6-.24,1.2-.49,1.78-.77.27-.13.4-.06.54.18a2.16,2.16,0,0,0,1.44,1,.83.83,0,0,0,1-.39.74.74,0,0,0-.37-1c-.54-.3-1.12-.54-1.68-.82a11.42,11.42,0,0,1-1.5-.82,3.55,3.55,0,0,1,.36-5.91,5.22,5.22,0,0,1,4.83-.13A3.89,3.89,0,0,1,190.72,19.17Z"/>
      <path class="cls-1" d="M143.14,16.34a2.94,2.94,0,0,1,.66-.1c.58.06.85-.16,1-.74a14.92,14.92,0,0,1,.65-2.06.66.66,0,0,1,.45-.37c.62,0,1.25,0,1.88,0,.3,0,.39.13.39.42,0,.76,0,1.52,0,2.28,0,.44.15.56.56.53s1.06,0,1.62,0v2.8c-.58,0-1.15,0-1.71,0-.35,0-.46.12-.46.46,0,1.54,0,3.09,0,4.63,0,1,.5,1.43,1.51,1.28.47-.07.55.1.56.5s.07.94.13,1.41a.48.48,0,0,1-.37.6,5.9,5.9,0,0,1-3.69.12A3.13,3.13,0,0,1,144.41,25c0-1.7,0-3.39,0-5.08,0-.49-.14-.77-.61-.84s-.72-.36-.67-.9S143.14,17,143.14,16.34Z"/>
      <path class="cls-1" d="M58.89,13.06v2.12c0,1.1,0,1.1,1.12,1.1h1v2.8c-.56,0-1.11,0-1.66,0s-.52.13-.51.52c0,1.45,0,2.9,0,4.34,0,1.26.44,1.64,1.68,1.5h.34c.06.72.14,1.44.18,2.15,0,.11-.18.28-.31.33A5.49,5.49,0,0,1,57,28a2.09,2.09,0,0,1-1.42-1.38,8.59,8.59,0,0,1-.42-2.05c-.06-1.56,0-3.12,0-4.68,0-.47-.12-.77-.6-.84a.71.71,0,0,1-.68-.9,7.84,7.84,0,0,0,0-1.37c0-.44.18-.62.55-.57.78.11,1-.32,1.16-1a17,17,0,0,1,.57-1.84c.05-.15.23-.36.35-.36C57.28,13,58.06,13.06,58.89,13.06Z"/>
      <path class="cls-1" d="M69.42,19.86a5.62,5.62,0,0,0-.78-.22c-1.38-.19-2.3.68-2.32,2.2,0,1.89,0,3.77,0,5.66,0,.46-.11.63-.6.61-1,0-2.09,0-3.21,0,0-.22,0-.42,0-.62,0-3.52,0-7,0-10.56,0-.5.12-.69.64-.66a14,14,0,0,0,2,0c.51,0,.69.18.7.64,0,.22,0,.45,0,.84l.49-.68a2.66,2.66,0,0,1,3-.82.58.58,0,0,1,.29.46C69.63,17.74,69.52,18.78,69.42,19.86Z"/>
      <path class="cls-1" d="M163.6,16.31h3.21l.17,1.38a6,6,0,0,0,.38-.51,2.6,2.6,0,0,1,3-1,.65.65,0,0,1,.36.46,4,4,0,0,1-.07,1c-.07.73-.15,1.47-.23,2.21a4.39,4.39,0,0,0-.75-.22c-1.39-.2-2.32.69-2.33,2.25,0,1.82,0,3.65,0,5.48v.68H163.6Z"/>
      <path class="cls-1" d="M94.74,23.33a4.9,4.9,0,0,1-.88-4.47,3.3,3.3,0,0,1,3.23-2.73,22.36,22.36,0,0,1,3.27.21c.48.05.7-.24,1-.49a6.09,6.09,0,0,0,.54-.7c.46.2.93.36,1.36.6a.62.62,0,0,1,.24.53c-.15.54-.4,1-.58,1.58a2.68,2.68,0,0,0-.14.83,26.61,26.61,0,0,1,0,2.82A2.91,2.91,0,0,1,100.62,24a9.11,9.11,0,0,1-3.56.3,1.62,1.62,0,0,0-.56.19c.17.13.34.36.52.37,1,0,2,0,3,0a3.9,3.9,0,0,1,2.54.85c1.49,1.3,1.22,4.24-.47,5.43a6,6,0,0,1-3.52,1,10.8,10.8,0,0,1-2.66-.3,2.69,2.69,0,0,1-1.78-4.2c0-.09.09-.17.17-.3a2.43,2.43,0,0,1,.42-4Zm2.56-3c0,.15,0,.3,0,.45,0,.75.25,1,.91,1s1-.22,1.07-1q0-.51,0-1c0-.76-.29-1-1-1s-1,.26-1,1C97.29,20,97.3,20.12,97.3,20.3Zm1.19,9.33a9.11,9.11,0,0,0,1.08-.16.76.76,0,0,0,.64-.87c0-.5-.38-.59-.74-.6-.72,0-1.45,0-2.17,0a.52.52,0,0,0-.4.29.84.84,0,0,0,.7,1.22C97.88,29.56,98.16,29.59,98.49,29.63Z"/>
    </g>
  </g>
</svg>
